<?xml version="1.0" encoding="utf-8"?>
<!-- Generator: Adobe Illustrator 23.0.3, SVG Export Plug-In . SVG Version: 6.00 Build 0)  -->
<svg version="1.1" id="Layer_1" xmlns="http://www.w3.org/2000/svg" xmlns:xlink="http://www.w3.org/1999/xlink" x="0px" y="0px"
	 viewBox="0 0 645.76 141.73" style="enable-background:new 0 0 645.76 141.73;" xml:space="preserve">
<style type="text/css">
	.st0{fill:#FFCD62;}
	.st1{fill:#742A88;}
	.st2{fill:#542163;}
	.st3{fill:#FBAD44;}
	.st4{fill:#EE1F50;}
	.st5{fill:#390E43;}
	.st6{fill:#F99D32;}
	.st7{fill:#FFFFFF;}
</style>
<path class="st0" d="M175.18,43.26l-36.81,55.22H88.66c-2.35,0-3.75-2.62-2.45-4.58l33.76-50.64H175.18z"/>
<polygon class="st1" points="119.97,43.26 156.78,98.47 211.99,98.47 175.18,43.26 "/>
<polygon class="st2" points="175.18,43.26 156.78,98.47 184.39,57.06 "/>
<polygon class="st3" points="119.97,43.26 110.76,57.06 138.37,98.47 "/>
<path class="st4" d="M245.75,47.84l-32.88,49.33c-0.55,0.82-1.47,1.31-2.45,1.31h-53.64l35.94-53.9c0.55-0.82,1.47-1.31,2.45-1.31
	h48.14C245.65,43.26,247.06,45.88,245.75,47.84z"/>
<path class="st1" d="M49.4,47.84l32.88,49.33c0.55,0.82,1.47,1.31,2.45,1.31h53.64l-35.94-53.9c-0.55-0.82-1.47-1.31-2.45-1.31
	H51.85C49.5,43.26,48.09,45.88,49.4,47.84z"/>
<g>
	<path class="st5" d="M325.42,62.91c-3.98,0.74-4.56,1.16-6.38,5.55c-2.98,7.71-6.55,17.82-10.53,29.34h-3.48
		c-3.07-7.71-6.55-15.67-9.61-22.88c-3.15,7.71-6.22,15.08-9.2,22.88h-3.4c-3.31-10.2-6.88-20.47-9.94-29.76
		c-1.41-3.98-1.82-4.64-5.8-5.14v-2.82h20.97v2.82c-4.81,0.66-5.3,1.49-4.39,4.14c1.58,5.39,3.23,10.94,4.81,16
		c3.07-7.29,6.05-15.33,8.62-22.63h3.48c2.82,7.46,6.13,15.33,9.37,22.96c1.41-4.06,4.23-12.1,4.97-15.75
		c0.75-3.07-0.25-4.14-6.05-4.72v-2.82h16.58V62.91z"/>
	<path class="st5" d="M361.25,85.19c-3.4,8.35-9.54,11.35-12.94,12.07c-10.86,2.31-18.73-4.41-20.78-14.05
		c-1.21-5.68,0.28-11.84,2.98-15.89c2.87-4.42,6.98-7.42,11.44-8.36c7.95-1.69,14.85,3.71,16.19,10.37c0.29,1.38,0.5,2.77-0.42,3.22
		c-1.45,0.73-12.76,3.73-20.56,5.72c2.15,8.52,7.87,11.89,13.7,10.65c3.16-0.67,6.08-2.48,8.47-5.61L361.25,85.19z M341.04,62.62
		c-3.24,0.69-5.19,5.08-4.31,11.59c3.31-0.79,6.37-1.52,9.76-2.33c1.12-0.32,1.57-0.59,1.28-1.97
		C346.98,65.85,344.2,61.95,341.04,62.62z"/>
	<path class="st5" d="M381.34,60.67c2.4-1.08,4.23-1.58,5.89-1.58c10.11,0,16.82,8.21,16.82,17.49c0,11.77-9.7,21.3-21.8,21.3
		c-4.81,0-9.03-0.83-14.75-2.98c0.08-1.99,0.08-4.31,0.08-6.38V50.14c0-4.72-0.5-5.39-5.14-5.72V41.6
		c4.31-0.41,11.27-1.57,15.83-2.82c0,2.82,0,5.88,0,8.87v14.42L381.34,60.67z M378.27,87.77c0,1.16,0.25,2.15,0.5,2.82
		c0.5,1.24,2.82,3.81,5.88,3.81c4.39,0,7.62-4.89,7.62-15.08c0-10.61-5.22-14.75-10.19-14.75c-1.74,0-2.57,0.25-3.81,0.58V87.77z"/>
	<path class="st5" d="M408.93,96.89v-2.82c4.48-0.58,4.97-0.91,4.97-6.8V71.11c0-5.55-0.41-5.88-4.31-6.38v-2.74
		c5.22-0.58,10.44-1.66,15-2.98c0,3.48,0,6.88,0,10.28v17.99c0,5.63,0.33,6.22,5.14,6.8v2.82H408.93z"/>
	<path class="st4" d="M418.63,53.95c-3.15,0-5.97-2.65-5.97-5.88c0-3.4,2.82-5.88,6.05-5.88c3.32,0,5.97,2.49,5.97,5.88
		C424.68,51.3,422.02,53.95,418.63,53.95z"/>
	<path class="st6" d="M590.81,98.47c-3.15,0-5.97-2.65-5.97-5.88c0-3.4,2.82-5.88,6.05-5.88c3.32,0,5.97,2.49,5.97,5.88
		C596.86,95.82,594.21,98.47,590.81,98.47z"/>
	<path class="st5" d="M466.69,88.84c-3.81,5.47-9.37,9.03-14.42,9.03c-11.44,0-18.15-8.62-18.15-17.82c0-6.13,3.15-11.93,8.45-15.83
		c5.47-4.06,10.69-5.14,14.42-5.14c3.15,0,5.8,0.91,7.29,1.99c1.16,0.83,1.58,1.83,1.58,3.07c-0.08,2.32-2.4,4.64-3.73,4.64
		c-0.58,0-1.16-0.25-1.82-0.91c-3.56-2.98-6.38-4.31-8.62-4.31c-3.23,0-7.13,3.15-7.13,12.1c0,11.02,8.04,14.59,11.6,14.59
		c3.4,0,5.88-0.91,8.87-3.48L466.69,88.84z"/>
	<path class="st5" d="M486.18,59.42c11.43-2.43,20.47,4.63,22.54,14.36c2.77,13.05-5.23,21.62-14.8,23.65
		c-12.24,2.6-21.18-5.16-23.19-14.64C468.09,70.38,476.86,61.4,486.18,59.42z M485.9,62.87c-3.49,0.74-6.12,5.11-4,15.08
		c2.14,10.05,7.1,17.05,12.2,15.96c3.08-0.65,5.96-3.47,3.44-15.3C495.15,67.34,490.92,61.8,485.9,62.87z"/>
	<path class="st5" d="M560,96.89v-2.82c3.31-0.5,3.9-0.83,3.9-5.88V73.85c0-6.88-3.23-8.12-5.8-8.12c-1.66,0-3.56,0.5-6.13,2.57
		c0.08,0.99,0.17,2.24,0.17,3.48v16.74c0,4.64,0.25,5.06,4.06,5.55v2.82h-18.65v-2.82c3.65-0.5,3.98-0.75,3.98-5.55V73.43
		c0-5.88-2.32-7.79-5.39-7.79c-2.07,0-4.06,0.74-6.38,2.49v20.39c0,4.64,0.5,5.06,3.57,5.55v2.82h-18.98v-2.82
		c4.56-0.58,4.81-0.91,4.81-5.88V70.61c0-4.64-0.08-5.39-3.98-5.97v-2.65c4.64-0.5,9.37-1.66,14.59-3.15c0,1.99,0,4.31,0,6.22
		c1.82-1.24,3.32-2.32,5.06-3.4c2.57-1.58,4.56-2.57,7.04-2.57c4.64,0,7.71,2.49,9.28,6.3c1.99-1.49,3.65-2.65,5.72-4.06
		c1.82-1.16,4.14-2.24,6.63-2.24c7.21,0,11.02,4.89,11.02,13.34v16.08c0,4.56,0.41,4.89,4.48,5.55v2.82H560z"/>
</g>
</svg>
